<?xml version="1.0" encoding="UTF-8" standalone="no"?>
<!-- Generator: Adobe Illustrator 19.0.0, SVG Export Plug-In . SVG Version: 6.00 Build 0)  -->

<svg
   xmlns:dc="http://purl.org/dc/elements/1.1/"
   xmlns:cc="http://creativecommons.org/ns#"
   xmlns:rdf="http://www.w3.org/1999/02/22-rdf-syntax-ns#"
   xmlns:svg="http://www.w3.org/2000/svg"
   xmlns="http://www.w3.org/2000/svg"
   xmlns:sodipodi="http://sodipodi.sourceforge.net/DTD/sodipodi-0.dtd"
   xmlns:inkscape="http://www.inkscape.org/namespaces/inkscape"
   version="1.1"
   id="Capa_1"
   x="0px"
   y="0px"
   viewBox="0 0 611.10979 615.93847"
   xml:space="preserve"
   sodipodi:docname="swipe.svg"
   width="611.1098"
   height="615.93848"
   inkscape:version="0.92.3 (2405546, 2018-03-11)"><metadata
   id="metadata67"><rdf:RDF><cc:Work
       rdf:about=""><dc:format>image/svg+xml</dc:format><dc:type
         rdf:resource="http://purl.org/dc/dcmitype/StillImage" /><dc:title></dc:title></cc:Work></rdf:RDF></metadata><defs
   id="defs65" /><sodipodi:namedview
   pagecolor="#ffffff"
   bordercolor="#666666"
   borderopacity="1"
   objecttolerance="10"
   gridtolerance="10"
   guidetolerance="10"
   inkscape:pageopacity="0"
   inkscape:pageshadow="2"
   inkscape:window-width="1920"
   inkscape:window-height="1137"
   id="namedview63"
   showgrid="false"
   inkscape:zoom="0.92190379"
   inkscape:cx="557.46027"
   inkscape:cy="272.08393"
   inkscape:window-x="-8"
   inkscape:window-y="-8"
   inkscape:window-maximized="1"
   inkscape:current-layer="Capa_1"
   fit-margin-top="0"
   fit-margin-left="0"
   fit-margin-right="0"
   fit-margin-bottom="0" />
<path
   style="fill:none;stroke:#000000;stroke-width:22;stroke-linecap:butt;stroke-linejoin:miter;stroke-miterlimit:4;stroke-dasharray:none;stroke-opacity:1"
   d="m 518.01112,353.03086 h 82.0987 V 11 H 11 v 342.03086 h 207.62682"
   id="path8516"
   inkscape:connector-curvature="0"
   sodipodi:nodetypes="cccccc" /><g
   id="g6"
   transform="translate(50.220904,103.95451)">
	<g
   id="g4">
		<path
   d="M 36.408,53.317 71.523,18.202 c 4.16,-4.16 4.16,-10.923 0,-15.083 -4.16,-4.16 -10.923,-4.16 -15.083,0 L 13.773,45.787 c -4.16,4.16 -4.16,10.923 0,15.083 l 42.667,42.667 c 2.091,2.069 4.821,3.115 7.552,3.115 2.731,0 5.461,-1.045 7.531,-3.136 4.16,-4.16 4.16,-10.923 0,-15.083 z"
   id="path2"
   inkscape:connector-curvature="0" />
	</g>
</g>
<g
   id="g12"
   transform="translate(50.220904,103.95451)">
	<g
   id="g10">
		<path
   d="M 498.211,45.787 455.544,3.12 c -4.16,-4.16 -10.923,-4.16 -15.083,0 -4.16,4.16 -4.16,10.923 0,15.083 l 35.115,35.115 -35.136,35.135 c -4.16,4.16 -4.16,10.923 0,15.083 2.091,2.069 4.821,3.115 7.552,3.115 2.731,0 5.461,-1.045 7.552,-3.115 l 42.667,-42.667 c 4.16,-4.16 4.16,-10.922 0,-15.082 z"
   id="path8"
   inkscape:connector-curvature="0" />
	</g>
</g>
<g
   id="g18"
   transform="translate(50.220904,103.95451)">
	<g
   id="g16">
		<path
   d="m 490.659,42.651 h -128 c -5.888,0 -10.667,4.779 -10.667,10.667 0,5.888 4.779,10.667 10.667,10.667 h 128 c 5.888,0 10.667,-4.779 10.667,-10.667 0,-5.888 -4.779,-10.667 -10.667,-10.667 z"
   id="path14"
   inkscape:connector-curvature="0" />
	</g>
</g>
<g
   id="g24"
   transform="translate(50.220904,103.95451)">
	<g
   id="g22">
		<path
   d="m 149.325,42.651 h -128 c -5.888,0 -10.667,4.779 -10.667,10.667 0,5.888 4.779,10.667 10.667,10.667 h 128 c 5.888,0 10.667,-4.779 10.667,-10.667 0,-5.888 -4.779,-10.667 -10.667,-10.667 z"
   id="path20"
   inkscape:connector-curvature="0" />
	</g>
</g>
<g
   id="g30"
   transform="translate(50.220904,103.95451)">
	<g
   id="g28">
		<path
   d="m 415.992,234.651 c -8.768,0 -16.939,2.667 -23.723,7.211 -5.845,-16.597 -21.696,-28.544 -40.277,-28.544 -7.765,0 -15.061,2.091 -21.333,5.739 V 106.651 c 0,-23.531 -19.136,-42.667 -42.667,-42.667 -18.581,0 -34.432,11.947 -40.277,28.544 -6.784,-4.544 -14.933,-7.211 -23.723,-7.211 -23.531,0 -42.667,19.136 -42.667,42.667 V 309.317 L 144.248,281.52 c -21.995,-16.491 -53.269,-14.293 -72.725,5.163 -12.48,12.48 -12.48,32.768 0,45.248 l 151.936,151.936 c 18.133,18.133 42.24,28.117 67.883,28.117 h 49.984 c 64.704,0 117.333,-52.629 117.333,-117.333 V 277.317 c 0,-23.53 -19.136,-42.666 -42.667,-42.666 z m 21.333,160 c 0,52.928 -43.072,96 -96,96 h -49.984 c -19.947,0 -38.699,-7.765 -52.779,-21.867 L 86.627,316.848 c -4.16,-4.16 -4.16,-10.923 0,-15.083 6.613,-6.613 15.424,-9.984 24.299,-9.984 7.211,0 14.443,2.24 20.544,6.805 l 54.123,40.597 c 3.221,2.432 7.573,2.816 11.179,1.003 3.605,-1.813 5.888,-5.504 5.888,-9.536 V 127.984 c 0,-11.755 9.579,-21.333 21.333,-21.333 11.754,0 21.333,9.579 21.333,21.333 v 160 c 0,5.888 4.779,10.667 10.667,10.667 5.888,0 10.667,-4.779 10.667,-10.667 V 106.651 c 0,-11.755 9.579,-21.333 21.333,-21.333 11.754,0 21.333,9.579 21.333,21.333 v 181.333 c 0,5.888 4.779,10.667 10.667,10.667 5.888,0 10.667,-4.779 10.667,-10.667 v -32 c 0,-11.755 9.579,-21.333 21.333,-21.333 11.754,0 21.333,9.579 21.333,21.333 v 32 c 0,5.888 4.779,10.667 10.667,10.667 5.888,0 10.667,-4.779 10.667,-10.667 v -10.667 c 0,-11.755 9.579,-21.333 21.333,-21.333 11.755,0 21.333,9.579 21.333,21.333 v 117.334 z"
   id="path26"
   inkscape:connector-curvature="0" />
	</g>
</g>
<g
   id="g32"
   transform="translate(50.220904,103.95451)">
</g>
<g
   id="g34"
   transform="translate(50.220904,103.95451)">
</g>
<g
   id="g36"
   transform="translate(50.220904,103.95451)">
</g>
<g
   id="g38"
   transform="translate(50.220904,103.95451)">
</g>
<g
   id="g40"
   transform="translate(50.220904,103.95451)">
</g>
<g
   id="g42"
   transform="translate(50.220904,103.95451)">
</g>
<g
   id="g44"
   transform="translate(50.220904,103.95451)">
</g>
<g
   id="g46"
   transform="translate(50.220904,103.95451)">
</g>
<g
   id="g48"
   transform="translate(50.220904,103.95451)">
</g>
<g
   id="g50"
   transform="translate(50.220904,103.95451)">
</g>
<g
   id="g52"
   transform="translate(50.220904,103.95451)">
</g>
<g
   id="g54"
   transform="translate(50.220904,103.95451)">
</g>
<g
   id="g56"
   transform="translate(50.220904,103.95451)">
</g>
<g
   id="g58"
   transform="translate(50.220904,103.95451)">
</g>
<g
   id="g60"
   transform="translate(50.220904,103.95451)">
</g>
</svg>